<svg xmlns="http://www.w3.org/2000/svg" xmlns:xlink="http://www.w3.org/1999/xlink" width="238" height="68" viewBox="0 0 238 68"><defs><style>.a,.e{fill:#fff;}.a{stroke:#707070;}.b{fill:#f9f9f9;}.c{fill:#333332;}.d{clip-path:url(#a);}</style><clipPath id="a"><rect class="a" width="177.692" height="28"/></clipPath></defs><g transform="translate(-410 -1086)"><rect class="b" width="238" height="68" transform="translate(410 1086)"/><g transform="translate(-163 -30)"><rect class="c" width="218" height="48" rx="4" transform="translate(583 1126)"/><g class="d" transform="translate(603 1136)"><g transform="translate(0.007 6.462)"><g transform="translate(82.492 0.534)"><path class="e" d="M54.616,18.088V14.846h3.242v3.242Zm-40.891,0V14.846h3.242v3.242Zm73.166,0V14.845h3.242v3.242Zm.021-4.318V12.683a6.028,6.028,0,0,1-4.4-5.8V.569H85.73V6.888a2.795,2.795,0,1,0,5.589,0V.569h3.235V6.889a6.028,6.028,0,0,1-4.4,5.795V13.77Zm-32.3,0V6.444A6.442,6.442,0,0,1,61.036.014v0a6.43,6.43,0,1,1-3.178,12.017v1.741ZM57.83,6.427a3.221,3.221,0,0,0,3.206,3.237,3.258,3.258,0,0,0,3.236-3.2,3.221,3.221,0,0,0-3.2-3.238H61.05A3.221,3.221,0,0,0,57.83,6.427Zm-44.1,7.341V6.444A6.442,6.442,0,0,1,20.144.014v0a6.43,6.43,0,1,1-3.177,12.017v1.741Zm3.214-7.342a3.221,3.221,0,0,0,3.205,3.238,3.259,3.259,0,0,0,3.237-3.2,3.221,3.221,0,0,0-3.2-3.238H20.16A3.222,3.222,0,0,0,16.939,6.426ZM0,6.455A6.442,6.442,0,1,1,6.442,12.9,6.442,6.442,0,0,1,0,6.455Zm3.221,0A3.221,3.221,0,1,0,6.442,3.234,3.221,3.221,0,0,0,3.221,6.455Zm67.088,4.553a6.43,6.43,0,1,1,10.974-4.65v6.219H78.042v-.534a6.429,6.429,0,0,1-7.733-1.036Zm2.26-6.836a3.2,3.2,0,0,0-.938,2.3,3.259,3.259,0,0,0,3.236,3.2l0,.006a3.2,3.2,0,0,0,3.237-3.2V6.353a3.247,3.247,0,0,0-3.235-3.118h-.032A3.2,3.2,0,0,0,72.569,4.172ZM33.891,12.885A6.442,6.442,0,1,1,40.14,4.9V4.9a7.442,7.442,0,0,1-.048,3.273H31.077l.055.085a3.287,3.287,0,0,0,4.4,1.053l2.256,2.256a6.358,6.358,0,0,1-3.874,1.317ZM31,4.856l-.045.08h5.87l-.045-.08a3.3,3.3,0,0,0-5.781,0Zm19.184,7.7V6.038a2.8,2.8,0,0,0-5.595,0v6.521H41.352V6.038A6.03,6.03,0,0,1,47.375.014h.006A6.03,6.03,0,0,1,53.4,6.038v6.521Z" transform="translate(0 0)"/></g><path class="e" d="M-32.857-2.864h2.843a4.737,4.737,0,0,0,5-4.876,4.667,4.667,0,0,0-5-4.738H-33.46a1.991,1.991,0,0,0-2.068,2.068V.961h2.671Zm0-2.55V-9.429a.48.48,0,0,1,.5-.5h2.343A2.155,2.155,0,0,1-27.722-7.74a2.207,2.207,0,0,1-2.292,2.326Zm18.558,1.9a4.478,4.478,0,0,0-4.687-4.652,4.53,4.53,0,0,0-4.738,4.652,4.5,4.5,0,0,0,4.652,4.652A4.579,4.579,0,0,0-16.884.582v.465H-14.3V-3.519ZM-18.986-1.33a2.124,2.124,0,0,1-2.171-2.188,2.124,2.124,0,0,1,2.171-2.188,2.073,2.073,0,0,1,2.119,2.188v.155h-.017v.155A2.047,2.047,0,0,1-18.986-1.33ZM-6.115-8v4.928A1.649,1.649,0,0,1-7.89-1.382,1.649,1.649,0,0,1-9.665-3.071V-8h-2.585v4.928A3.916,3.916,0,0,0-9.182.978V4.752H-6.6V.978A3.916,3.916,0,0,0-3.53-3.071V-8ZM7.738-6.207l-1.017,4.6a.109.109,0,0,1-.1.086.109.109,0,0,1-.1-.086L5.119-8H2.449L4.31-.762A2.138,2.138,0,0,0,6.6,1.134c.982,0,1.74-.465,2.068-1.9L9.754-5.449a.109.109,0,0,1,.1-.086.109.109,0,0,1,.1.086l1.12,4.687c.327,1.378,1.12,1.9,2.1,1.9,1.017,0,1.809-.4,2.24-1.9L17.474-8H14.82L13.287-1.606a.109.109,0,0,1-.1.086.109.109,0,0,1-.1-.086l-1.034-4.6c-.31-1.413-1.034-1.964-2.154-1.964C8.824-8.171,8.049-7.6,7.738-6.207ZM21.661-12.5H19.076v2.671h2.585Zm0,4.5H19.076V.961h2.585ZM31.121.91V-1.572a13.419,13.419,0,0,1-1.637.1c-1.017,0-1.447-.379-1.447-1.378V-5.655h3.084V-8H28.036v-3.1H25.452v2.481a.563.563,0,0,1-.62.62H23.3v2.343h2.154v3.084c0,2.412,1.275,3.618,3.5,3.618A15.8,15.8,0,0,0,31.121.91Zm6.427-9.081a3.587,3.587,0,0,0-2,.569v-4.876H32.964V.961h2.585V-3.863a1.647,1.647,0,0,1,1.758-1.792A1.622,1.622,0,0,1,39.03-3.863V.961h2.585V-3.915C41.614-6.62,40.081-8.171,37.548-8.171Z" transform="translate(35.528 12.496)"/></g></g></g></g></svg>