<svg xmlns="http://www.w3.org/2000/svg" xmlns:xlink="http://www.w3.org/1999/xlink" width="117" height="26" viewBox="0 0 117 26"><defs><style>.a{fill:none;stroke:#707070;}.b{clip-path:url(#a);}.c{fill:#333332;}</style><clipPath id="a"><rect class="a" width="117" height="26" transform="translate(341 1629)"/></clipPath></defs><g class="b" transform="translate(-341 -1629)"><g transform="translate(283.934 1357)"><path class="c" d="M-33.048-3.552h2.64a4.4,4.4,0,0,0,4.64-4.528,4.334,4.334,0,0,0-4.64-4.4h-3.2a1.849,1.849,0,0,0-1.92,1.92V0h2.48Zm0-2.368V-9.648a.445.445,0,0,1,.464-.464h2.176A2,2,0,0,1-28.28-8.08a2.05,2.05,0,0,1-2.128,2.16Zm17.232,1.76a4.158,4.158,0,0,0-4.352-4.32,4.206,4.206,0,0,0-4.4,4.32A4.177,4.177,0,0,0-20.248.16a4.252,4.252,0,0,0,2.032-.512V.08h2.4V-4.16Zm-4.352,2.032A1.972,1.972,0,0,1-22.184-4.16a1.972,1.972,0,0,1,2.016-2.032A1.925,1.925,0,0,1-18.2-4.16v.144h-.016v.144A1.9,1.9,0,0,1-20.168-2.128ZM-8.216-8.32v4.576A1.532,1.532,0,0,1-9.864-2.176a1.532,1.532,0,0,1-1.648-1.568V-8.32h-2.4v4.576A3.636,3.636,0,0,0-11.064.016v3.5h2.4V.016a3.636,3.636,0,0,0,2.848-3.76V-8.32ZM4.648-6.656,3.7-2.384a.1.1,0,0,1-.1.08.1.1,0,0,1-.1-.08L2.216-8.32H-.264L1.464-1.6A1.985,1.985,0,0,0,3.592.16C4.5.16,5.208-.272,5.512-1.6L6.52-5.952a.1.1,0,0,1,.1-.08.1.1,0,0,1,.1.08L7.752-1.6C8.056-.32,8.792.16,9.7.16c.944,0,1.68-.368,2.08-1.76l1.9-6.72H11.224L9.8-2.384a.1.1,0,0,1-.1.08.1.1,0,0,1-.1-.08l-.96-4.272c-.288-1.312-.96-1.824-2-1.824C5.656-8.48,4.936-7.952,4.648-6.656ZM17.576-12.5h-2.4v2.48h2.4Zm0,4.176h-2.4V0h2.4ZM26.36-.048v-2.3a12.461,12.461,0,0,1-1.52.1c-.944,0-1.344-.352-1.344-1.28V-6.144H26.36V-8.32H23.5V-11.2H21.1v2.3a.523.523,0,0,1-.576.576H19.1v2.176h2V-3.28C21.1-1.04,22.28.08,24.344.08A14.674,14.674,0,0,0,26.36-.048ZM32.328-8.48a3.331,3.331,0,0,0-1.856.528V-12.48h-2.4V0h2.4V-4.48A1.529,1.529,0,0,1,32.1-6.144,1.506,1.506,0,0,1,33.7-4.48V0h2.4V-4.528C36.1-7.04,34.68-8.48,32.328-8.48Z" transform="translate(94 289)"/><g transform="translate(-223.17 67.28)"><path class="c" d="M492.386,212.19v5.94a5.672,5.672,0,0,1-4.137,5.455v1.024H485.2v-1.022a5.674,5.674,0,0,1-4.137-5.455V212.19h3.024v5.94a2.629,2.629,0,1,0,5.258,0v-5.94Z" transform="translate(-96.149 -1.948)"/><rect class="c" width="3.049" height="3.049" transform="translate(389.029 223.671)"/><rect class="c" width="3.047" height="3.047" transform="translate(372.075 223.673)"/><path class="c" d="M426.316,218.8a3.028,3.028,0,1,1,3.041-3.011,3.064,3.064,0,0,1-3.041,3.011m0-9.081a6.054,6.054,0,0,0-6.035,6.046v6.9h3.047v-1.637a6.046,6.046,0,1,0,2.988-11.3" transform="translate(-48.205)"/><path class="c" d="M368.255,215.809a3.028,3.028,0,1,1-3.026-3.028,3.028,3.028,0,0,1,3.026,3.028m3.028,0a6.057,6.057,0,1,0-6.055,6.055,6.057,6.057,0,0,0,6.055-6.055" transform="translate(0 -0.024)"/></g></g></g></svg>